# xmcd
#
# Track frame offsets:
#	150
#	20249
#	31761
#	50180
#	65128
#	80451
#	96583
#	112257
#	132625
#	149157
#	165609
#	180194
#	199852
#	214567
#	231489
#	246242
#	262382
#	277980
#	293449
#	312478
#	329770
#	345946
#
# Disc length: 4733 seconds
#
# Revision: 0
# Processed by: cddbd v1.5.1PL2 Copyright (c) Steve Scherf et al.
# Submitted via: dBpowerAMP V4.0
#
DISCID=6a127b16
DTITLE=Intocable - Grandes exitos
DYEAR=1900
DGENRE=
TTITLE0=Fuerte no soy
TTITLE1=Ya vez
TTITLE2=Aire
TTITLE3=Dejame amarte
TTITLE4=Enseñame a olvidar
TTITLE5=Un desengaño
TTITLE6=Eres mi droga
TTITLE7=Dejame amarte
TTITLE8=El amogo que se fue
TTITLE9=Yo no tengo la culpa
TTITLE10=Soy un novato
TTITLE11=Perdedor
TTITLE12=Eso duele
TTITLE13=Entre querer y amar
TTITLE14=Invisible
TTITLE15=A donde estabas
TTITLE16=No te vayas
TTITLE17=Amor maldito
TTITLE18=Alguien te va a hacer llorar
TTITLE19=Te amo
TTITLE20=A veces
TTITLE21=Momentos
EXTD=
EXTT0=
EXTT1=
EXTT2=
EXTT3=
EXTT4=
EXTT5=
EXTT6=
EXTT7=
EXTT8=
EXTT9=
EXTT10=
EXTT11=
EXTT12=
EXTT13=
EXTT14=
EXTT15=
EXTT16=
EXTT17=
EXTT18=
EXTT19=
EXTT20=
EXTT21=
PLAYORDER=
